<svg width="38" height="39" viewBox="0 0 38 39" fill="none" xmlns="http://www.w3.org/2000/svg">
<path d="M33.25 16.25C33.25 27.625 19 37.375 19 37.375C19 37.375 4.75 27.625 4.75 16.25C4.75 12.3712 6.25133 8.65128 8.92373 5.90856C11.5961 3.16584 15.2207 1.625 19 1.625C22.7793 1.625 26.4039 3.16584 29.0763 5.90856C31.7487 8.65128 33.25 12.3712 33.25 16.25Z" stroke="#F97F38" stroke-width="2" stroke-linecap="round" stroke-linejoin="round"/>
<path d="M19 21.125C21.6234 21.125 23.75 18.9424 23.75 16.25C23.75 13.5576 21.6234 11.375 19 11.375C16.3766 11.375 14.25 13.5576 14.25 16.25C14.25 18.9424 16.3766 21.125 19 21.125Z" stroke="#F97F38" stroke-width="2" stroke-linecap="round" stroke-linejoin="round"/>
</svg>
