<svg width="36" height="36" viewBox="0 0 36 36" fill="none" xmlns="http://www.w3.org/2000/svg">
<path d="M22.575 7.49951C24.0401 7.78536 25.3866 8.5019 26.4421 9.55741C27.4976 10.6129 28.2142 11.9594 28.5 13.4245M22.575 1.49951C25.6189 1.83767 28.4574 3.20077 30.6244 5.36502C32.7914 7.52927 34.158 10.366 34.5 13.4095M33 25.3795V29.8795C33.0017 30.2973 32.9161 30.7108 32.7488 31.0935C32.5814 31.4763 32.336 31.8199 32.0281 32.1023C31.7203 32.3847 31.3569 32.5997 30.9611 32.7336C30.5654 32.8674 30.1461 32.9171 29.73 32.8795C25.1143 32.378 20.6805 30.8007 16.785 28.2745C13.1608 25.9715 10.088 22.8988 7.78502 19.2745C5.24999 15.3613 3.67239 10.906 3.18002 6.26951C3.14254 5.85471 3.19183 5.43665 3.32477 5.04195C3.45771 4.64724 3.67138 4.28455 3.95217 3.97694C4.23296 3.66934 4.57473 3.42358 4.95571 3.25529C5.33669 3.08701 5.74853 2.9999 6.16502 2.99951H10.665C11.393 2.99235 12.0987 3.25013 12.6507 3.72481C13.2026 4.19949 13.5631 4.85868 13.665 5.57951C13.855 7.01961 14.2072 8.4336 14.715 9.79451C14.9168 10.3314 14.9605 10.9149 14.8409 11.4758C14.7212 12.0368 14.4433 12.5517 14.04 12.9595L12.135 14.8645C14.2704 18.6198 17.3797 21.7292 21.135 23.8645L23.04 21.9595C23.4479 21.5562 23.9628 21.2783 24.5237 21.1587C25.0846 21.039 25.6681 21.0827 26.205 21.2845C27.5659 21.7923 28.9799 22.1446 30.42 22.3345C31.1487 22.4373 31.8141 22.8043 32.2898 23.3658C32.7655 23.9272 33.0183 24.6439 33 25.3795Z" stroke="#F97F38" stroke-width="2" stroke-linecap="round" stroke-linejoin="round"/>
</svg>
