<svg width="39" height="39" viewBox="0 0 39 39" fill="none" xmlns="http://www.w3.org/2000/svg">
<path d="M27.625 3.24951H11.375C6.88769 3.24951 3.25 6.8872 3.25 11.3745V27.6245C3.25 32.1118 6.88769 35.7495 11.375 35.7495H27.625C32.1123 35.7495 35.75 32.1118 35.75 27.6245V11.3745C35.75 6.8872 32.1123 3.24951 27.625 3.24951Z" stroke="#F97F38" stroke-width="2" stroke-linecap="round" stroke-linejoin="round"/>
<path d="M26 18.4758C26.2006 19.8282 25.9696 21.2094 25.3399 22.4229C24.7102 23.6365 23.7139 24.6206 22.4927 25.2352C21.2714 25.8499 19.8875 26.0639 18.5377 25.8467C17.1878 25.6294 15.9409 24.9921 14.9741 24.0254C14.0074 23.0587 13.3701 21.8117 13.1529 20.4619C12.9357 19.112 13.1496 17.7281 13.7643 16.5069C14.379 15.2857 15.3631 14.2893 16.5766 13.6597C17.7902 13.03 19.1714 12.799 20.5238 12.9995C21.9033 13.2041 23.1804 13.8469 24.1665 14.833C25.1526 15.8191 25.7954 17.0963 26 18.4758Z" stroke="#F97F38" stroke-width="2" stroke-linecap="round" stroke-linejoin="round"/>
<path d="M28.4375 10.562H28.4537" stroke="#F97F38" stroke-width="2" stroke-linecap="round" stroke-linejoin="round"/>
</svg>
